# Blender 4.1.0
# www.blender.org
mtllib flat_arrow.mtl
g Plane_Mesh
v -0.000000 -0.033706 2.629720
v -1.000000 -0.056200 0.629720
v 1.000000 -0.056201 0.629721
v 0.200000 -0.056200 0.987092
v 0.100000 -0.156200 0.987092
v -0.100000 -0.156200 0.987092
v -0.200000 -0.056200 0.987092
v 0.301386 -0.109402 -0.370919
v 0.150693 -0.260095 -0.370919
v -0.150693 -0.260095 -0.370919
v -0.301386 -0.109402 -0.370919
v -1.000000 0.050310 0.629720
v 1.000000 0.050310 0.629721
v 0.200000 0.050310 0.987092
v 0.100000 0.150310 0.987092
v -0.100000 0.150310 0.987092
v -0.200000 0.050310 0.987092
v 0.301386 0.103512 -0.370919
v 0.150693 0.254205 -0.370919
v -0.150693 0.254205 -0.370919
v -0.301386 0.103512 -0.370919
v -0.000000 0.033470 2.629720
vn 0.0065 -0.9999 0.0145
vn 0.7039 -0.7039 0.0953
vn -0.0000 -0.9972 0.0744
vn -0.7039 -0.7039 0.0953
vn -0.0065 -0.9999 0.0145
vn -0.7048 -0.7048 0.0802
vn -0.0000 -0.9971 0.0763
vn 0.7048 -0.7048 0.0802
vn -0.8944 -0.0000 0.4472
vn 0.8944 -0.0000 0.4472
vn -0.4079 -0.0000 -0.9130
vn 0.4079 -0.0000 -0.9130
vn -0.9972 -0.0000 0.0745
vn 0.9972 -0.0000 0.0745
vn 0.7048 0.7048 0.0802
vn -0.0000 -0.0000 -1.0000
vn -0.7048 0.7048 0.0802
vn -0.0000 0.9971 0.0763
vn 0.0048 0.9999 0.0108
vn -0.0048 0.9999 0.0108
vn -0.7040 0.7040 0.0929
vn 0.7040 0.7040 0.0929
vn -0.0000 0.9975 0.0710
vt -0.000000 0.558256
vt 0.000000 -0.000000
vt 0.138825 0.389097
vt 0.161738 0.379063
vt 0.206418 0.356706
vt 0.228186 0.344384
vt 0.446802 0.334690
vt 0.402743 0.636642
vt 0.369940 0.655211
vt 0.302610 0.688901
vt 0.268083 0.704022
vt 0.952405 -0.000000
vt 0.973393 0.548045
vt 0.946786 0.548045
vt 0.994381 0.000000
vt 0.973393 0.548045
vt 0.977600 0.000000
vt 0.601884 0.703990
vt 0.628491 0.903835
vt 0.601884 0.903835
vt 0.575277 0.703990
vt 0.575277 0.903835
vt 0.906889 0.333766
vt 0.946786 -0.000000
vt 0.933496 0.333766
vt 0.893599 0.667531
vt 0.933496 0.333766
vt 0.946786 0.667531
vt 0.608507 0.325012
vt 0.714887 0.000000
vt 0.749379 0.015194
vt 0.484446 0.703990
vt 0.446802 0.816922
vt 0.446802 0.741634
vt 0.575277 0.741634
vt 0.537633 0.854566
vt 0.537633 0.703990
vt 0.484446 0.854566
vt 0.653187 0.347369
vt 0.849546 0.067382
vt 0.674978 0.359644
vt 0.816708 0.048885
vt 0.585619 0.314929
vt 0.446802 0.703990
vt 0.446802 0.145759
vt 0.893599 0.369334
vt 0.969186 -0.000000
vt 1.000000 0.548045
vt 0.628491 0.703990
vt 0.601884 0.703990
vt 0.893599 -0.000000
vt 0.906889 0.333766
vt 0.575277 0.816922
s 0
g Plane_Material.001
usemtl Material.001
f 3/1/1 1/2/1 4/3/1
f 5/4/2 4/3/2 1/2/2
f 6/5/3 5/4/3 1/2/3
f 7/6/4 6/5/4 1/2/4
f 1/2/5 2/7/5 7/6/5
f 6/5/6 11/8/6 10/9/6
f 6/5/7 9/10/7 5/4/7
f 5/4/8 8/11/8 4/3/8
f 1/12/9 12/13/9 2/14/9
f 1/15/10 13/16/10 22/17/10
f 4/18/11 13/19/11 3/20/11
f 2/21/12 17/20/12 7/22/12
f 17/23/13 11/24/13 7/25/13
f 18/26/14 4/27/14 8/28/14
f 15/29/15 18/30/15 19/31/15
f 18/32/16 20/33/16 19/34/16
f 9/35/16 11/36/16 8/37/16
f 18/32/16 11/36/16 21/38/16
f 16/39/17 21/40/17 17/41/17
f 15/29/18 20/42/18 16/39/18
f 14/43/19 22/44/19 13/45/19
f 12/46/20 22/44/20 17/41/20
f 17/41/21 22/44/21 16/39/21
f 15/29/22 22/44/22 14/43/22
f 16/39/23 22/44/23 15/29/23
f 6/5/6 7/6/6 11/8/6
f 6/5/7 10/9/7 9/10/7
f 5/4/8 9/10/8 8/11/8
f 1/12/9 22/47/9 12/13/9
f 1/15/10 3/48/10 13/16/10
f 4/18/11 14/49/11 13/19/11
f 2/21/12 12/50/12 17/20/12
f 17/23/13 21/51/13 11/24/13
f 18/26/14 14/52/14 4/27/14
f 15/29/15 14/43/15 18/30/15
f 18/32/16 21/38/16 20/33/16
f 9/35/16 10/53/16 11/36/16
f 18/32/16 8/37/16 11/36/16
f 16/39/17 20/42/17 21/40/17
f 15/29/18 19/31/18 20/42/18
