# Blender 4.1.0
# www.blender.org
mtllib flat_world.mtl
g flat_iso_Mesh
v 0.000000 -1.000000 0.000000
v 0.723607 -0.447220 0.525725
v -0.276388 -0.447220 0.850649
v -0.894426 -0.447216 0.000000
v -0.276388 -0.447220 -0.850649
v 0.723607 -0.447220 -0.525725
v 0.276388 0.447220 0.850649
v -0.723607 0.447220 0.525725
v -0.723607 0.447220 -0.525725
v 0.276388 0.447220 -0.850649
v 0.894426 0.447216 -0.000000
v 0.000000 1.000000 -0.000000
v -0.162456 -0.850654 0.499995
v 0.425323 -0.850654 0.309011
v 0.262869 -0.525738 0.809012
v 0.850648 -0.525736 0.000000
v 0.425323 -0.850654 -0.309011
v -0.525730 -0.850652 0.000000
v -0.688189 -0.525736 0.499997
v -0.162456 -0.850654 -0.499995
v -0.688189 -0.525736 -0.499997
v 0.262869 -0.525738 -0.809012
v 0.951058 0.000000 0.309013
v 0.951058 -0.000000 -0.309013
v 0.000000 0.000000 1.000000
v 0.587786 0.000000 0.809017
v -0.951058 0.000000 0.309013
v -0.587786 0.000000 0.809017
v -0.587786 -0.000000 -0.809017
v -0.951058 -0.000000 -0.309013
v 0.587786 -0.000000 -0.809017
v 0.000000 -0.000000 -1.000000
v 0.688189 0.525736 0.499997
v -0.262869 0.525738 0.809012
v -0.850648 0.525736 -0.000000
v -0.262869 0.525738 -0.809012
v 0.688189 0.525736 -0.499997
v 0.162456 0.850654 0.499995
v 0.525730 0.850652 -0.000000
v -0.425323 0.850654 0.309011
v -0.425323 0.850654 -0.309011
v 0.162456 0.850654 -0.499995
vn -0.0000 -1.0000 -0.0000
vn 0.4253 -0.8507 0.3090
vn -0.1625 -0.8507 0.5000
vn 0.7236 -0.4472 0.5257
vn 0.8506 -0.5257 -0.0000
vn -0.5257 -0.8507 -0.0000
vn -0.1625 -0.8507 -0.5000
vn 0.4253 -0.8507 -0.3090
vn 0.9511 -0.0000 0.3090
vn -0.2764 -0.4472 0.8506
vn 0.2629 -0.5257 0.8090
vn -0.0000 -0.0000 1.0000
vn -0.8944 -0.4472 -0.0000
vn -0.6882 -0.5257 0.5000
vn -0.9511 -0.0000 0.3090
vn -0.2764 -0.4472 -0.8506
vn -0.6882 -0.5257 -0.5000
vn -0.5878 -0.0000 -0.8090
vn 0.7236 -0.4472 -0.5257
vn 0.2629 -0.5257 -0.8090
vn 0.5878 -0.0000 -0.8090
vn 0.5878 -0.0000 0.8090
vn -0.5878 -0.0000 0.8090
vn -0.9511 -0.0000 -0.3090
vn -0.0000 -0.0000 -1.0000
vn 0.9511 -0.0000 -0.3090
vn 0.2764 0.4472 0.8506
vn 0.6882 0.5257 0.5000
vn 0.1625 0.8507 0.5000
vn -0.7236 0.4472 0.5257
vn -0.2629 0.5257 0.8090
vn -0.4253 0.8507 0.3090
vn -0.7236 0.4472 -0.5257
vn -0.8506 0.5257 -0.0000
vn -0.4253 0.8507 -0.3090
vn 0.2764 0.4472 -0.8506
vn -0.2629 0.5257 -0.8090
vn 0.1625 0.8507 -0.5000
vn 0.8944 0.4472 -0.0000
vn 0.6882 0.5257 -0.5000
vn 0.5257 0.8507 -0.0000
vn -0.0000 1.0000 -0.0000
vt 0.462500 -0.034379
vt 0.612501 0.153943
vt 0.412500 0.153943
vt 0.612501 0.342266
vt 0.712500 0.311674
vt 0.212500 0.153945
vt 0.012499 0.153943
vt 1.012499 0.153943
vt 0.812499 0.153943
vt 0.662500 0.500000
vt 0.412501 0.342267
vt 0.512501 0.311674
vt 0.462500 0.500000
vt 0.212500 0.342268
vt 0.312500 0.311674
vt 0.262499 0.500000
vt 0.012499 0.342266
vt 0.112500 0.311674
vt 0.062500 0.500000
vt 0.812499 0.342266
vt 0.912499 0.311673
vt 0.862500 0.500000
vt 0.562500 0.500000
vt 0.362500 0.500000
vt 0.162500 0.500000
vt -0.037500 0.500000
vt 0.762499 0.500000
vt 0.512499 0.657734
vt 0.612500 0.688326
vt 0.512499 0.846057
vt 0.312499 0.657734
vt 0.412499 0.688326
vt 0.312499 0.846057
vt 0.112501 0.657734
vt 0.212500 0.688326
vt 0.112501 0.846057
vt 0.912501 0.657734
vt 1.012501 0.688326
vt 0.912500 0.846057
vt 0.712500 0.657732
vt 0.812500 0.688326
vt 0.712500 0.846055
vt 0.462500 1.034379
vt 1.112501 0.846057
vt 0.012501 0.688326
vt 0.962500 0.500000
vt 1.012499 0.342266
s 1
g flat_iso_Material.001
usemtl Material.001
f 1/1/1 14/2/2 13/3/3
f 2/4/4 14/2/2 16/5/5
f 1/1/1 13/3/3 18/6/6
f 1/1/1 18/6/6 20/7/7
f 1/1/1 20/8/7 17/9/8
f 2/4/4 16/5/5 23/10/9
f 3/11/10 15/12/11 25/13/12
f 4/14/13 19/15/14 27/16/15
f 5/17/16 21/18/17 29/19/18
f 6/20/19 22/21/20 31/22/21
f 2/4/4 23/10/9 26/23/22
f 3/11/10 25/13/12 28/24/23
f 4/14/13 27/16/15 30/25/24
f 5/17/16 29/19/18 32/26/25
f 6/20/19 31/22/21 24/27/26
f 7/28/27 33/29/28 38/30/29
f 8/31/30 34/32/31 40/33/32
f 9/34/33 35/35/34 41/36/35
f 10/37/36 36/38/37 42/39/38
f 11/40/39 37/41/40 39/42/41
f 39/42/41 42/39/38 12/43/42
f 39/42/41 37/41/40 42/39/38
f 37/41/40 10/37/36 42/39/38
f 42/39/38 41/44/35 12/43/42
f 42/39/38 36/38/37 41/44/35
f 36/45/37 9/34/33 41/36/35
f 41/36/35 40/33/32 12/43/42
f 41/36/35 35/35/34 40/33/32
f 35/35/34 8/31/30 40/33/32
f 40/33/32 38/30/29 12/43/42
f 40/33/32 34/32/31 38/30/29
f 34/32/31 7/28/27 38/30/29
f 38/30/29 39/42/41 12/43/42
f 38/30/29 33/29/28 39/42/41
f 33/29/28 11/40/39 39/42/41
f 24/27/26 37/41/40 11/40/39
f 24/27/26 31/22/21 37/41/40
f 31/22/21 10/37/36 37/41/40
f 32/46/25 36/38/37 10/37/36
f 32/26/25 29/19/18 36/45/37
f 29/19/18 9/34/33 36/45/37
f 30/25/24 35/35/34 9/34/33
f 30/25/24 27/16/15 35/35/34
f 27/16/15 8/31/30 35/35/34
f 28/24/23 34/32/31 8/31/30
f 28/24/23 25/13/12 34/32/31
f 25/13/12 7/28/27 34/32/31
f 26/23/22 33/29/28 7/28/27
f 26/23/22 23/10/9 33/29/28
f 23/10/9 11/40/39 33/29/28
f 31/22/21 32/46/25 10/37/36
f 31/22/21 22/21/20 32/46/25
f 22/21/20 5/47/16 32/46/25
f 29/19/18 30/25/24 9/34/33
f 29/19/18 21/18/17 30/25/24
f 21/18/17 4/14/13 30/25/24
f 27/16/15 28/24/23 8/31/30
f 27/16/15 19/15/14 28/24/23
f 19/15/14 3/11/10 28/24/23
f 25/13/12 26/23/22 7/28/27
f 25/13/12 15/12/11 26/23/22
f 15/12/11 2/4/4 26/23/22
f 23/10/9 24/27/26 11/40/39
f 23/10/9 16/5/5 24/27/26
f 16/5/5 6/20/19 24/27/26
f 17/9/8 22/21/20 6/20/19
f 17/9/8 20/8/7 22/21/20
f 20/8/7 5/47/16 22/21/20
f 20/7/7 21/18/17 5/17/16
f 20/7/7 18/6/6 21/18/17
f 18/6/6 4/14/13 21/18/17
f 18/6/6 19/15/14 4/14/13
f 18/6/6 13/3/3 19/15/14
f 13/3/3 3/11/10 19/15/14
f 16/5/5 17/9/8 6/20/19
f 16/5/5 14/2/2 17/9/8
f 14/2/2 1/1/1 17/9/8
f 13/3/3 15/12/11 3/11/10
f 13/3/3 14/2/2 15/12/11
f 14/2/2 2/4/4 15/12/11
